<?xml version="1.0" encoding="UTF-8"?>
<!--
  Hand-redrawn eyes, visible pupils, and mouths for the pubnyan rig.
  Each part's variants (normal/angry/curious/shy) share the same command
  sequence and landmark order (right, top, left, bottom: M + 4 C + Z), so morphs between them
  interpolate control points instead of crossfading. See rig/parts.map.json's
  "overrides" wiring and docs/backlog.md "Better morphs".
-->
<svg xmlns="http://www.w3.org/2000/svg" viewBox="0 0 406 351" width="406" height="351">
  <g transform="translate(16 16)">
  <path id="eye-l-normal" d="M166.74 102.56C166.74 91.51 157.79 82.56 146.74 82.56C135.69 82.56 126.74 91.51 126.74 102.56C126.74 114.16 135.69 123.56 146.74 123.56C157.79 123.56 166.74 114.16 166.74 102.56Z" fill="#ffffff"/>
  <path id="eye-l-angry" d="M166.74 104.06C166.74 101.06 153.74 98.06 146.74 96.06C139.74 94.06 126.74 87.06 126.74 89.06C125.74 108.06 134.74 121.06 146.74 121.06C158.74 121.06 166.74 113.06 166.74 104.06Z" fill="#ffffff"/>
  <path id="eye-l-curious" d="M169.74 101.06C169.74 87.805 159.443 77.06 146.74 77.06C134.037 77.06 123.74 87.805 123.74 101.06C123.74 114.315 134.037 125.06 146.74 125.06C159.443 125.06 169.74 114.315 169.74 101.06Z" fill="#ffffff"/>
  <path id="eye-l-shy" d="M166.74 107.06C166.74 104.06 155.74 103.06 146.74 103.06C137.74 103.06 126.74 104.06 126.74 107.06C126.74 116.06 135.74 122.06 146.74 122.06C157.74 122.06 166.74 116.06 166.74 107.06Z" fill="#ffffff"/>
  <path id="eye-r-normal" d="M260.16 96.48C260.16 85.99 251.65 77.48 241.16 77.48C230.67 77.48 222.16 85.99 222.16 96.48C222.16 107.53 230.67 116.48 241.16 116.48C251.65 116.48 260.16 107.53 260.16 96.48Z" fill="#ffffff"/>
  <path id="eye-r-angry" d="M261.16 82.98C261.16 80.98 248.16 87.98 241.16 89.98C234.16 91.98 221.16 94.98 221.16 97.98C221.16 106.98 229.16 114.98 241.16 114.98C253.16 114.98 262.16 101.98 261.16 82.98Z" fill="#ffffff"/>
  <path id="eye-r-curious" d="M262.16 94.98C262.16 81.725 252.758 70.98 241.16 70.98C229.562 70.98 220.16 81.725 220.16 94.98C220.16 108.235 229.562 118.98 241.16 118.98C252.758 118.98 262.16 108.235 262.16 94.98Z" fill="#ffffff"/>
  <path id="eye-r-shy" d="M261.16 100.98C261.16 97.98 250.16 96.98 241.16 96.98C232.16 96.98 221.16 97.98 221.16 100.98C221.16 109.98 230.16 115.98 241.16 115.98C252.16 115.98 261.16 109.98 261.16 100.98Z" fill="#ffffff"/>
  <path id="mouth-normal" d="M207.63 154.43C207.63 151.67 201.36 149.43 193.63 149.43C185.9 149.43 179.63 151.67 179.63 154.43C179.63 158.85 185.9 162.43 193.63 162.43C201.36 162.43 207.63 158.85 207.63 154.43Z" fill="#000000"/>
  <path id="mouth-angry" d="M207 160C207 157 199 151 194 151C189 151 181 157 181 160C181 162 189 155 194 155C199 155 207 162 207 160Z" fill="#000000"/>
  <path id="mouth-curious" d="M200.5 157C200.5 152.306 197.59 148.5 194 148.5C190.41 148.5 187.5 152.306 187.5 157C187.5 161.694 190.41 165.5 194 165.5C197.59 165.5 200.5 161.694 200.5 157Z" fill="#000000"/>
  <path id="mouth-shy" d="M205 154C205 153 199 155 194 155C189 155 183 153 183 154C183 158 189 161 194 161C199 161 205 158 205 154Z" fill="#000000"/>
  <path id="pupil-l-normal" d="M158.94 103.06C158.94 95.77 153.478 89.86 146.74 89.86C140.002 89.86 134.54 95.77 134.54 103.06C134.54 110.35 140.002 116.26 146.74 116.26C153.478 116.26 158.94 110.35 158.94 103.06Z" fill="#000000"/>
  <path id="pupil-l-curious" d="M161.74 99.06C161.74 90.776 156.367 84.06 149.74 84.06C143.113 84.06 137.74 90.776 137.74 99.06C137.74 107.344 143.113 114.06 149.74 114.06C156.367 114.06 161.74 107.344 161.74 99.06Z" fill="#000000"/>
  <path id="pupil-l-shy" d="M152.74 113.06C152.74 109.47 148.711 106.56 143.74 106.56C138.769 106.56 134.74 109.47 134.74 113.06C134.74 116.65 138.769 119.56 143.74 119.56C148.711 119.56 152.74 116.65 152.74 113.06Z" fill="#000000"/>
  <path id="pupil-l-angry" d="M157.74 107.06C157.74 104.06 150.74 102.06 146.74 101.06C142.74 100.06 136.74 96.06 136.74 98.06C135.74 107.06 139.74 116.06 146.74 116.06C153.74 116.06 157.74 112.06 157.74 107.06Z" fill="#000000"/>
  <path id="pupil-r-normal" d="M253.36 96.98C253.36 89.69 247.898 83.78 241.16 83.78C234.422 83.78 228.96 89.69 228.96 96.98C228.96 104.27 234.422 110.18 241.16 110.18C247.898 110.18 253.36 104.27 253.36 96.98Z" fill="#000000"/>
  <path id="pupil-r-curious" d="M256.16 92.98C256.16 84.696 250.787 77.98 244.16 77.98C237.533 77.98 232.16 84.696 232.16 92.98C232.16 101.264 237.533 107.98 244.16 107.98C250.787 107.98 256.16 101.264 256.16 92.98Z" fill="#000000"/>
  <path id="pupil-r-shy" d="M247.16 106.98C247.16 103.39 243.131 100.48 238.16 100.48C233.189 100.48 229.16 103.39 229.16 106.98C229.16 110.57 233.189 113.48 238.16 113.48C243.131 113.48 247.16 110.57 247.16 106.98Z" fill="#000000"/>
  <path id="pupil-r-angry" d="M251.16 91.98C251.16 89.98 245.16 93.98 241.16 94.98C237.16 95.98 230.16 97.98 230.16 100.98C230.16 105.98 234.16 109.98 241.16 109.98C248.16 109.98 252.16 100.98 251.16 91.98Z" fill="#000000"/>
  <!-- Original silhouette contour, partitioned at cheek and ear roots. The closing curves overlap in black, preserving the source outline at rest. -->
  <path id="body-articulated" d="M294.55 192.79C250 204 164 215 118.94 207.71C118.23 209.33 117.53 211.02 116.85 212.85C116.58 213.58 116.35 214.37 116.12 215.19C58.78 230.67 24.22 251.64 22.03 276.31C19.62 303.4 73.69 329.91 197.53 313.95C328.58 297.05 382.57 249.21 371.81 221.89C365.1 204.87 338.19 194.63 294.55 192.79Z" fill="#000000"/>
  <path id="head-articulated" d="M294.55 192.79C296.62 190.49 298.66 188.03 300.03 186.71C303.57 183.29 305.69 178.62 308.28 174.75C310.41 171.57 314.12 169.46 315.69 166.1C317.96 161.26 318.73 159.35 320.02 154.43C321.23 149.82 324.15 147 324.69 142.61C324.91 140.78 325.15 138.52 325.32 136.04C328.17 136.91 330.87 137.86 333.38 138.86C336.45 140.08 339.67 139.46 342.27 140.78C343.75 141.53 348.59 145.01 349.92 145.76C365.1 154.39 367.62 162.29 369.88 158.7C371.1 156.76 367.93 146.95 360.79 140.9C356.71 137.44 353.33 135.06 347.14 131.86C343.91 130.18 340.89 129.98 337.17 128.61C334.25 127.54 328.99 126.35 325.45 125.52C325.25 121.95 324.75 118.43 323.75 115.39C322.99 113.22 322.3 111.08 321.68 109.08C323.47 108.34 325.25 107.73 327.01 107.27C351.19 100.99 363.4 117.53 365.56 113.08C368.44 107.15 347.36 91.08 325.47 98.44C323.34 99.16 321.29 100.04 319.3 101.04C318.84 99.42 318.49 98.2 318.27 97.53C317.02 93.67 317.72 90.1 317.18 86.52C316 78.74 310.95 73.72 310.44 71.3C309.93 68.86 306.85 59.59 304.57 56.38C302.25 53.13 300.58 53.51 299.93 49.59C280 45 253 23 240.31 31.98C238.09 31.84 234.87 28.8 230.93 28.69C226.41 28.55 224.47 29.64 222.1 29.5C218.25 29.27 218.19 28.53 214.55 28.34C211.42 28.17 211.44 29.18 208.36 28.88C206.51 28.7 202.99 27.98 201.19 27.8C199.51 27.62 195.08 27.1 193.21 27.31C189.82 27.69 186.49 28.92 183.42 28.88C179.68 28.83 174.61 27.8 170.76 28.54C164.38 29.76 163.9 31.23 158.38 31.81C154.63 32.21 151.73 32.69 148.4 33.35C140 31 111 49 96.38 58.76C90.92 63.61 87.25 66.34 83.13 73.31C80.42 77.88 76.5 79.05 73.72 84.22C72.98 85.6 69.29 91.23 68.61 92.71C67.22 95.75 67.35 97.98 66.28 101.51C64.71 106.75 60.41 109.54 59.02 120.59C59 120.78 58.99 120.96 58.98 121.15C56.89 120.12 54.69 119.2 52.36 118.42C30.47 111.05 15.18 124.95 16.68 131.37C17.75 135.94 26.07 119.55 50.97 126.73C53.94 127.58 56.88 128.74 59.72 130.07C60.32 132.98 61.1 135.81 61.61 138.64C56.08 138.35 49.99 138.78 43.41 140.34C38.77 141.44 32.2 143.26 28.11 144.93C22.02 147.43 20.91 148.91 16.33 152C14.24 153.41 9.82 157.93 8.09 159.34C0.28 165.72 -0.82 172.69 0.45 174.71C2.32 177.68 18.79 158.02 27.64 154.03C37.61 149.55 41.7 149.15 48.91 147.25C53.55 146.02 58.09 145.41 62.39 145.23C62.73 149.42 62.91 152.77 64.81 157.21C66.39 160.89 67.5 163.81 70.3 167.89C71.44 169.55 72.46 173.98 74.63 176.14C77.48 178.99 80.01 182.07 82.35 185.26C86.02 190.25 88.86 190.24 93.36 193.71C98.19 197.43 98.5 201.01 107.2 203.82C109.87 206.55 113.84 206.95 118.94 207.71C137 215 148 243 194 243C236 243 266 219 294.55 192.79Z" fill="#000000"/>
  <path id="ear-l-articulated" d="M148.4 33.35C148.1 32.58 148.8 29.67 146.79 26.64C145.56 24.78 143.22 23.59 142.3 21.62C141.44 19.77 140.92 18.59 139.76 16.75C138.83 15.28 137.55 15.53 136.9 14.82C135.91 13.73 134.85 12.06 133.49 11.36C131.87 10.53 127.35 10.13 125.41 9.95C122.35 9.66 121.56 10.95 118.42 12.59C116.79 13.44 113.73 14.13 112.26 15.59C110.63 19.22 109.47 19.61 106.85 22.54C104.7 24.95 104.41 25.53 102.6 29.34C101.38 31.91 102.32 34.12 101.21 36.45C100.14 38.67 100.21 41.24 99.42 43.98C98.88 45.82 96.33 48.67 95.88 50.36C94.56 55.3 96.63 56.13 96.38 58.76C112 74 140 65 148.4 33.35Z" fill="#000000"/>
  <path id="ear-r-articulated" d="M299.93 49.59C299.33 45.97 302.87 43.4 302.25 38.15C301.36 30.62 300.46 29.84 299 25.79C297.71 22.16 298.29 20.21 296.84 17.09C295.23 13.63 289.11 5.62 286.58 4.35C284.38 3.24 282.83 0.89 281.19 0.41C276.27 -1.06 275.52 1.94 273.43 1.57C268.47 0.68 267.73 1.65 262.42 5.27C260.19 6.8 258.53 9.82 256.39 11.76C254.99 13.04 251.46 14.79 250.13 16.17C247.4 19.01 247.49 21.44 245.27 24.28C242.62 27.67 241.86 29.46 240.31 31.98C257 54 278 68 299.93 49.59Z" fill="#000000"/>
  <!-- Source-derived paths already aligned to the normal nose, before the common motion gutter. -->
  <path id="normal-face-aligned" d="M229.86 130.95C216.68 122.17 212.23 102.41 197.96 102.41C186.21 102.41 181.17 120.13 165.22 130.95C150.04 141.26 114.85 134.31 110.65 150.26C106.36 166.58 127.81 171.25 147.12 180.48C166.43 189.72 174.45 233.37 194.6 233.37C214.91 233.37 219.8 201.42 232.38 190.56C250.85 174.61 280.6 172.93 280.6 153.62C280.6 138.51 250.01 144.38 229.86 130.95Z" fill="#ffffff"/>
  <path id="normal-ring-gap-l-aligned" d="M63.49 264.92C64.4 274.67 82.44 280.06 107.92 281.84C106.09 272.62 103.91 261.97 104.78 256.31C105.78 249.74 109.43 243.82 111.06 237.57C111.39 236.28 111.67 234.86 111.94 233.41C83.11 243.08 62.49 254.34 63.49 264.92Z" fill="#ffffff"/>
  <path id="normal-ring-gap-r-aligned" d="M279.76 205.5C279.81 205.91 279.86 206.31 279.92 206.7C280.63 211.27 282.19 215.14 282.46 219.92C282.69 224.08 285.12 229.26 284.56 233.37C283.12 243.74 283.4 248.41 283.41 254.66C312.66 243.44 332.22 230.49 327.08 219.82C322.27 209.84 304.32 205.77 279.76 205.5Z" fill="#ffffff"/>
  <path id="normal-nose-aligned" d="M194.76 138.61C202.43 138.61 206.88 131.76 206.37 128.74C205.87 125.72 200.2 124.46 195.35 124.46C188.68 124.46 184.54 125.72 184.54 129.95C184.54 134.18 189.74 138.63 194.76 138.61Z" fill="#000000"/>
  <path id="angry-nose-aligned" d="M194.75 138.61C202.42 138.61 206.87 131.76 206.37 128.74 205.86 125.72 200.2 124.46 195.34 124.46 188.67 124.46 184.53 125.72 184.53 129.95 184.53 134.18 189.74 138.63 194.75 138.61Z" fill="#000000"/>
  <path id="curious-nose-aligned" d="M194.76 138.61C202.42 138.61 206.88 131.76 206.37 128.74 205.87 125.72 200.2 124.46 195.35 124.46 188.68 124.46 184.54 125.72 184.54 129.95 184.54 134.18 189.74 138.63 194.76 138.61Z" fill="#000000"/>
  <path id="cry-eye-l-white-aligned" d="M116.42 123.09C119.6 123.49 122.8 123.27 125.95 122.68 127.84 122.32 129.77 121.56 131.1 120.12 131.8 119.35 132.3 118.48 132.63 117.56 133.33 117.74 134.07 117.93 134.92 118.1 139.46 118.67 155.34 119.36 160.24 115.41 163.18 113.05 163 113.66 165.34 109.54 169.39 102.39 168.49 95.42 165.92 90.91 163.34 86.4 157.52 82.72 155.44 82.26 151.29 81.35 142.6 79.45 132.21 93.18 128.96 97.47 126.13 100.85 125.98 104.81 125.94 106.04 125.9 107.14 125.89 108.14 123.4 108.14 120.93 108.26 118.44 108.64 117.18 108.83 115.92 109.13 114.72 109.6 113.02 110.27 111.15 111.01 109.94 112.45 109.02 113.55 108.44 114.65 108.25 116.08 107.98 118.08 108.79 120.04 110.38 121.28 112.15 122.64 114.28 122.82 116.42 123.09Z" fill="#ffffff"/>
  <path id="cry-eye-r-white-aligned" d="M235.34 113.19C237.08 113.7 240.86 113.59 244.98 112.97 245.83 114.55 247.41 115.65 249.29 115.65 255.71 115.66 262.19 114.45 268.12 111.99 269.14 111.56 269.96 111.14 270.66 110.23 271.3 109.41 271.76 108.34 271.71 107.27 271.62 105.37 270.5 103.46 268.68 102.75 268.64 102.64 268.61 102.52 268.57 102.41 267.86 100.73 266.03 99.27 264.1 99.41 263.59 99.44 263.09 99.5 262.58 99.57 262.97 95.47 261.51 91.49 259.33 88.11 257.16 84.76 254.34 79.18 250.17 77.71 243.38 75.05 235.47 77.24 229.06 85.53 227.37 87.7 223.71 92.72 222.91 95.69 222.18 98.45 221.97 100.83 222.17 102.88 222.97 111.49 230.72 111.83 235.34 113.19Z" fill="#ffffff"/>
  <path id="cry-tear-l-aligned" d="M103.39 131.14C103.39 131.13 103.38 131.12 103.37 131.11 103.37 131.1 103.37 131.1 103.37 131.1 103.22 130.9 102.75 130.29 102.59 130.1 102.58 130.07 102.56 130.05 102.54 130.03 102.09 129.56 101.57 129.22 100.96 129.02 100.38 128.72 99.75 128.58 99.08 128.6 98.87 128.59 98.67 128.61 98.47 128.63 98.36 128.62 98.26 128.61 98.14 128.61 97.71 128.67 97.28 128.73 96.85 128.78 96.02 129.02 95.3 129.43 94.69 130.04 94.67 130.06 94.66 130.08 94.64 130.09 94.51 130.26 94.31 130.52 94.25 130.6 94.21 130.65 93.98 130.93 93.86 131.11 93.85 131.11 93.85 131.13 93.84 131.13 93.6 131.52 93.43 131.96 93.31 132.39 93.18 132.84 93.1 133.31 93.12 133.77 93.17 134.79 93.32 135.41 93.81 136.31 93.81 136.31 93.82 136.32 93.82 136.32 93.82 136.32 93.83 136.33 93.83 136.33 93.84 136.35 94.58 137.31 94.59 137.32 94.6 137.33 94.61 137.34 94.62 137.35 94.63 137.36 94.63 137.36 94.64 137.37 94.67 137.39 95.6 138.11 95.63 138.13 95.64 138.14 95.64 138.14 95.64 138.14 95.66 138.15 95.67 138.16 95.68 138.17 95.7 138.17 95.71 138.18 95.73 138.19 95.92 138.28 96.27 138.42 96.32 138.44 96.36 138.45 96.71 138.61 96.91 138.69 96.92 138.69 96.93 138.7 96.94 138.7 96.97 138.71 97.01 138.72 97.05 138.73 97.07 138.73 97.09 138.74 97.11 138.74 97.33 138.77 97.57 138.8 97.78 138.83 97.99 138.86 98.23 138.9 98.46 138.92 98.5 138.93 98.54 138.93 98.59 138.93 98.63 138.93 98.67 138.93 98.71 138.93 99.19 138.89 99.66 138.82 100.13 138.74 100.17 138.73 100.2 138.72 100.24 138.71 100.68 138.58 101.09 138.37 101.51 138.18 101.54 138.17 101.56 138.15 101.59 138.13 101.68 138.07 101.92 137.88 102.06 137.78 102.2 137.67 102.5 137.44 102.59 137.36 102.6 137.35 102.6 137.35 102.61 137.35 102.76 137.2 103.08 136.74 103.02 136.82 103.49 136.21 103.71 135.99 103.93 135.09 104.17 134.09 104.16 133.4 103.93 132.4 103.82 131.96 103.63 131.53 103.39 131.14Z" fill="#ffffff"/>
  <path id="cry-tear-r-aligned" d="M269.64 119.58C268.97 119.55 268.34 119.69 267.76 120 267.15 120.2 266.63 120.53 266.18 121.01 265.71 121.45 265.37 121.98 265.17 122.58 264.87 123.16 264.73 123.79 264.75 124.46 264.81 124.9 264.87 125.33 264.93 125.76 265.16 126.59 265.58 127.31 266.18 127.92 266.52 128.17 266.84 128.43 267.17 128.68 267.94 129.13 268.76 129.35 269.64 129.35L271.03 129.35C271.7 129.38 272.33 129.24 272.92 128.93 273.52 128.73 274.04 128.4 274.49 127.92 274.96 127.48 275.3 126.95 275.5 126.35 275.8 125.77 275.94 125.14 275.92 124.46 275.86 124.03 275.8 123.6 275.74 123.17 275.51 122.34 275.09 121.62 274.49 121.01 274.16 120.75 273.83 120.5 273.5 120.24 272.74 119.8 271.91 119.58 271.03 119.58Z" fill="#ffffff"/>
  <path id="cry-eye-l-pupil-aligned" d="M143.46 111.92C147.91 112.47 154.77 113.1 158.58 106.44 163.54 97.76 156.04 91.45 153.5 90.89 150.95 90.34 144.6 88.67 138.24 97 131.89 105.33 135.2 110.25 143.46 111.92Z" fill="#000000"/>
  <path id="cry-eye-r-pupil-aligned" d="M238.34 106.97C242.61 107.51 249.27 105.54 251.48 100.94 256.35 90.38 250.45 86.06 248.01 85.53 245.57 84.99 238.05 83.89 231.95 91.88 225.85 99.88 230.41 105.37 238.34 106.97Z" fill="#000000"/>
  <path id="cry-nose-aligned" d="M194.76 138.61C202.42 138.61 206.88 131.76 206.37 128.74 205.87 125.72 200.2 124.46 195.35 124.46 188.68 124.46 184.54 125.72 184.54 129.95 184.54 134.18 189.74 138.63 194.76 138.61Z" fill="#000000"/>
  <path id="cry-mouth-aligned" d="M195.35 150.48C187.62 150.51 177.04 156.79 179.09 158.86 181.42 161.2 188.23 155.68 195.35 155.74 202.46 155.8 205.35 161.2 208.48 159.04 210.84 157.42 206.41 150.44 195.35 150.48Z" fill="#000000"/>
  <path id="shy-nose-aligned" d="M194.75 138.61C202.42 138.61 206.87 131.76 206.37 128.74 205.86 125.72 200.2 124.46 195.34 124.46 188.67 124.46 184.53 125.72 184.53 129.95 184.53 134.18 189.74 138.63 194.75 138.61Z" fill="#000000"/>
</g>
</svg>
