<svg xmlns="http://www.w3.org/2000/svg" viewBox="0 0 406 351" width="406" height="351">
<title>to-angry</title>
<desc>pubnyan, the Hackers' Pub mascot, by Bak Eunji. CC BY-SA 4.0. https://github.com/hackers-pub/visual-identity</desc>
<style>
@keyframes head-t {
  0% { transform: translate(209px, 226px) rotate(0deg) scale(1, 1) translate(-209px, -226px); animation-timing-function: cubic-bezier(0, 0, 0.58, 1); }
  50% { transform: translate(209px, 224px) rotate(0deg) scale(1, 1) translate(-209px, -226px); animation-timing-function: cubic-bezier(0.33, 1, 0.68, 1); }
  100% { transform: translate(209px, 226px) rotate(0deg) scale(1, 1) translate(-209px, -226px); }
}
@keyframes eye-l-white-t {
  0% { transform: translate(162.74px, 119.06px) rotate(0deg) scale(1, 1) translate(-162.74px, -119.06px); }
  4.1667% { transform: translate(162.74px, 119.06px) rotate(0deg) scale(1, 1) translate(-162.74px, -119.06px); animation-timing-function: cubic-bezier(0.42, 0, 1, 1); }
  25% { transform: translate(162.74px, 119.06px) rotate(0deg) scale(1, 0.08) translate(-162.74px, -119.06px); }
  37.5% { transform: translate(162.74px, 119.06px) rotate(0deg) scale(1, 0.08) translate(-162.74px, -119.06px); animation-timing-function: cubic-bezier(0.33, 1, 0.68, 1); }
  83.3333% { transform: translate(162.74px, 119.06px) rotate(0deg) scale(1, 1) translate(-162.74px, -119.06px); }
  100% { transform: translate(162.74px, 119.06px) rotate(0deg) scale(1, 1) translate(-162.74px, -119.06px); }
}
@keyframes eye-l-white-s-normal {
  0% { opacity: 1; }
  25% { opacity: 1; animation-timing-function: cubic-bezier(0.65, 0, 0.35, 1); }
  37.5% { opacity: 0; }
  100% { opacity: 0; }
}
@keyframes eye-l-white-s-angry {
  0% { opacity: 0; }
  25% { opacity: 0; animation-timing-function: cubic-bezier(0.65, 0, 0.35, 1); }
  37.5% { opacity: 1; }
  100% { opacity: 1; }
}
@keyframes eye-r-white-t {
  0% { transform: translate(257.16px, 112.98px) rotate(0deg) scale(1, 1) translate(-257.16px, -112.98px); }
  4.1667% { transform: translate(257.16px, 112.98px) rotate(0deg) scale(1, 1) translate(-257.16px, -112.98px); animation-timing-function: cubic-bezier(0.42, 0, 1, 1); }
  25% { transform: translate(257.16px, 112.98px) rotate(0deg) scale(1, 0.08) translate(-257.16px, -112.98px); }
  37.5% { transform: translate(257.16px, 112.98px) rotate(0deg) scale(1, 0.08) translate(-257.16px, -112.98px); animation-timing-function: cubic-bezier(0.33, 1, 0.68, 1); }
  83.3333% { transform: translate(257.16px, 112.98px) rotate(0deg) scale(1, 1) translate(-257.16px, -112.98px); }
  100% { transform: translate(257.16px, 112.98px) rotate(0deg) scale(1, 1) translate(-257.16px, -112.98px); }
}
@keyframes eye-r-white-s-normal {
  0% { opacity: 1; }
  25% { opacity: 1; animation-timing-function: cubic-bezier(0.65, 0, 0.35, 1); }
  37.5% { opacity: 0; }
  100% { opacity: 0; }
}
@keyframes eye-r-white-s-angry {
  0% { opacity: 0; }
  25% { opacity: 0; animation-timing-function: cubic-bezier(0.65, 0, 0.35, 1); }
  37.5% { opacity: 1; }
  100% { opacity: 1; }
}
@keyframes eye-l-pupil-t {
  0% { transform: translate(162.74px, 119.06px) rotate(0deg) scale(1, 1) translate(-162.74px, -119.06px); }
  4.1667% { transform: translate(162.74px, 119.06px) rotate(0deg) scale(1, 1) translate(-162.74px, -119.06px); animation-timing-function: cubic-bezier(0.42, 0, 1, 1); }
  25% { transform: translate(162.74px, 119.06px) rotate(0deg) scale(1, 0.08) translate(-162.74px, -119.06px); }
  37.5% { transform: translate(162.74px, 119.06px) rotate(0deg) scale(1, 0.08) translate(-162.74px, -119.06px); animation-timing-function: cubic-bezier(0.33, 1, 0.68, 1); }
  83.3333% { transform: translate(162.74px, 119.06px) rotate(0deg) scale(1, 1) translate(-162.74px, -119.06px); }
  100% { transform: translate(162.74px, 119.06px) rotate(0deg) scale(1, 1) translate(-162.74px, -119.06px); }
}
@keyframes eye-l-pupil-s {
  0% { d: path("M174.94 119.06C174.94 111.77 169.48 105.86 162.74 105.86C156 105.86 150.54 111.77 150.54 119.06C150.54 126.35 156 132.26 162.74 132.26C169.48 132.26 174.94 126.35 174.94 119.06Z"); }
  100% { d: path("M174.94 119.06C174.94 111.77 169.48 105.86 162.74 105.86C156 105.86 150.54 111.77 150.54 119.06C150.54 126.35 156 132.26 162.74 132.26C169.48 132.26 174.94 126.35 174.94 119.06Z"); }
}
@keyframes eye-l-pupil-o {
  0% { opacity: 1; }
  8.3333% { opacity: 1; animation-timing-function: cubic-bezier(0.42, 0, 1, 1); }
  20.8333% { opacity: 0; }
  41.6667% { opacity: 0; animation-timing-function: cubic-bezier(0.33, 1, 0.68, 1); }
  50% { opacity: 0; }
  100% { opacity: 0; }
}
@keyframes eye-r-pupil-t {
  0% { transform: translate(257.16px, 112.98px) rotate(0deg) scale(1, 1) translate(-257.16px, -112.98px); }
  4.1667% { transform: translate(257.16px, 112.98px) rotate(0deg) scale(1, 1) translate(-257.16px, -112.98px); animation-timing-function: cubic-bezier(0.42, 0, 1, 1); }
  25% { transform: translate(257.16px, 112.98px) rotate(0deg) scale(1, 0.08) translate(-257.16px, -112.98px); }
  37.5% { transform: translate(257.16px, 112.98px) rotate(0deg) scale(1, 0.08) translate(-257.16px, -112.98px); animation-timing-function: cubic-bezier(0.33, 1, 0.68, 1); }
  83.3333% { transform: translate(257.16px, 112.98px) rotate(0deg) scale(1, 1) translate(-257.16px, -112.98px); }
  100% { transform: translate(257.16px, 112.98px) rotate(0deg) scale(1, 1) translate(-257.16px, -112.98px); }
}
@keyframes eye-r-pupil-s {
  0% { d: path("M269.36 112.98C269.36 105.69 263.9 99.78 257.16 99.78C250.42 99.78 244.96 105.69 244.96 112.98C244.96 120.27 250.42 126.18 257.16 126.18C263.9 126.18 269.36 120.27 269.36 112.98Z"); }
  100% { d: path("M269.36 112.98C269.36 105.69 263.9 99.78 257.16 99.78C250.42 99.78 244.96 105.69 244.96 112.98C244.96 120.27 250.42 126.18 257.16 126.18C263.9 126.18 269.36 120.27 269.36 112.98Z"); }
}
@keyframes eye-r-pupil-o {
  0% { opacity: 1; }
  8.3333% { opacity: 1; animation-timing-function: cubic-bezier(0.42, 0, 1, 1); }
  20.8333% { opacity: 0; }
  41.6667% { opacity: 0; animation-timing-function: cubic-bezier(0.33, 1, 0.68, 1); }
  50% { opacity: 0; }
  100% { opacity: 0; }
}
@keyframes nose-s {
  0% { d: path("M210.76 154.61C218.43 154.61 222.88 147.76 222.37 144.74C221.87 141.72 216.2 140.46 211.35 140.46C204.68 140.46 200.54 141.72 200.54 145.95C200.54 150.18 205.74 154.63 210.76 154.61Z"); }
  8.3333% { d: path("M210.76 154.61C218.43 154.61 222.88 147.76 222.37 144.74C221.87 141.72 216.2 140.46 211.35 140.46C204.68 140.46 200.54 141.72 200.54 145.95C200.54 150.18 205.74 154.63 210.76 154.61Z"); animation-timing-function: cubic-bezier(0.42, 0, 0.58, 1); }
  100% { d: path("M210.75 154.61C218.42 154.61 222.87 147.76 222.37 144.74C221.86 141.72 216.2 140.46 211.34 140.46C204.67 140.46 200.53 141.72 200.53 145.95C200.53 150.18 205.74 154.63 210.75 154.61Z"); }
}
@keyframes mouth-s-normal {
  0% { opacity: 1; animation-timing-function: cubic-bezier(0.42, 0, 0.58, 1); }
  100% { opacity: 0; }
}
@keyframes mouth-s-angry {
  0% { opacity: 0; animation-timing-function: cubic-bezier(0.42, 0, 0.58, 1); }
  100% { opacity: 1; }
}
</style>
<g id="body" style="transform-box: view-box; transform-origin: 0px 0px"><g id="ring-back" style="transform-box: view-box; transform-origin: 0px 0px"><path d="M38.03 292.31C40.22 267.64 74.78 246.67 132.12 231.19C186 216 256 206 310.55 208.79C354.19 210.63 381.1 220.87 387.81 237.89C388.29 239.12 388.65 240.39 388.87 241.7L343.9 239.09C343.86 237.98 343.59 236.89 343.08 235.82C338.27 225.84 320.32 221.77 295.76 221.5C241 221 176 232 127.94 249.41C99.11 259.08 78.49 270.34 79.49 280.92C79.58 281.89 79.84 282.83 80.27 283.71L38.01 295.56C37.93 294.48 37.93 293.39 38.03 292.31Z" fill="#000000"/></g><g id="torso" style="transform-box: view-box; transform-origin: 0px 0px"><path d="M310.55 208.79C266 201 180 201 131 213C131 218 132 222 134.94 223.71C134.23 225.33 133.53 227.02 132.85 228.85C132.58 229.58 132.35 230.37 132.12 231.19C130 238 129 244 127.94 249.41C127.67 250.86 127.39 252.28 127.06 253.57C125.43 259.82 121.78 265.74 120.78 272.31C119.91 277.97 122.09 288.62 123.92 297.84C125 306 126 314 128 318C176 318 256 300 299.41 292L299.41 270.66C299.4 264.41 299.12 259.74 300.56 249.37C301.12 245.26 298.69 240.08 298.46 235.92C298.19 231.14 296.63 227.27 295.92 222.7C295.86 222.31 295.81 221.91 295.76 221.5Z" fill="#000000"/><g id="head" style="transform-box: view-box; transform-origin: 0px 0px; animation: head-t 0.4s linear 1 forwards"><path d="M310.55 208.79C312.62 206.49 314.66 204.03 316.03 202.71C319.57 199.29 321.69 194.62 324.28 190.75C326.41 187.57 330.12 185.46 331.69 182.1C333.96 177.26 334.73 175.35 336.02 170.43C337.23 165.82 340.15 163 340.69 158.61C340.91 156.78 341.15 154.52 341.32 152.04C344.17 152.91 346.87 153.86 349.38 154.86C352.45 156.08 355.67 155.46 358.27 156.78C359.75 157.53 364.59 161.01 365.92 161.76C381.1 170.39 383.62 178.29 385.88 174.7C387.1 172.76 383.93 162.95 376.79 156.9C372.71 153.44 369.33 151.06 363.14 147.86C359.91 146.18 356.89 145.98 353.17 144.61C350.25 143.54 344.99 142.35 341.45 141.52C341.25 137.95 340.75 134.43 339.75 131.39C338.99 129.22 338.3 127.08 337.68 125.08C339.47 124.34 341.25 123.73 343.01 123.27C367.19 116.99 379.4 133.53 381.56 129.08C384.44 123.15 363.36 107.08 341.47 114.44C339.34 115.16 337.29 116.04 335.3 117.04C334.84 115.42 334.49 114.2 334.27 113.53C333.02 109.67 333.72 106.1 333.18 102.52C332 94.74 326.95 89.72 326.44 87.3C325.93 84.86 322.85 75.59 320.57 72.38C318.25 69.13 316.58 69.51 315.93 65.59C296 61 269 39 256.31 47.98C254.09 47.84 250.87 44.8 246.93 44.69C242.41 44.55 240.47 45.64 238.1 45.5C234.25 45.27 234.19 44.53 230.55 44.34C227.42 44.17 227.44 45.18 224.36 44.88C222.51 44.7 218.99 43.98 217.19 43.8C215.51 43.62 211.08 43.1 209.21 43.31C205.82 43.69 202.49 44.92 199.42 44.88C195.68 44.83 190.61 43.8 186.76 44.54C180.38 45.76 179.9 47.23 174.38 47.81C170.63 48.21 167.73 48.69 164.4 49.35C156 47 127 65 112.38 74.76C106.92 79.61 103.25 82.34 99.13 89.31C96.42 93.88 92.5 95.05 89.72 100.22C88.98 101.6 85.29 107.23 84.61 108.71C83.22 111.75 83.35 113.98 82.28 117.51C80.71 122.75 76.41 125.54 75.02 136.59C75 136.78 74.99 136.96 74.98 137.15C72.89 136.12 70.69 135.2 68.36 134.42C46.47 127.05 31.18 140.95 32.68 147.37C33.75 151.94 42.07 135.55 66.97 142.73C69.94 143.58 72.88 144.74 75.72 146.07C76.32 148.98 77.1 151.81 77.61 154.64C72.08 154.35 65.99 154.78 59.41 156.34C54.77 157.44 48.2 159.26 44.11 160.93C38.02 163.43 36.91 164.91 32.33 168C30.24 169.41 25.82 173.93 24.09 175.34C16.28 181.72 15.18 188.69 16.45 190.71C18.32 193.68 34.79 174.02 43.64 170.03C53.61 165.55 57.7 165.15 64.91 163.25C69.55 162.02 74.09 161.41 78.39 161.23C78.73 165.42 78.91 168.77 80.81 173.21C82.39 176.89 83.5 179.81 86.3 183.89C87.44 185.55 88.46 189.98 90.63 192.14C93.48 194.99 96.01 198.07 98.35 201.26C102.02 206.25 104.86 206.24 109.36 209.71C114.19 213.43 114.5 217.01 123.2 219.82C125.87 222.55 129.84 222.95 134.94 223.71C153 231 164 259 210 259C252 259 276 241 295.76 221.5L310.55 208.79Z" fill="#000000"/><g id="ear-l" style="transform-box: view-box; transform-origin: 0px 0px"><path d="M164.4 49.35C164.1 48.58 164.8 45.67 162.79 42.64C161.56 40.78 159.22 39.59 158.3 37.62C157.44 35.77 156.92 34.59 155.76 32.75C154.83 31.28 153.55 31.53 152.9 30.82C151.91 29.73 150.85 28.06 149.49 27.36C147.87 26.53 143.35 26.13 141.41 25.95C138.35 25.66 137.56 26.95 134.42 28.59C132.79 29.44 129.73 30.13 128.26 31.59C126.63 35.22 125.47 35.61 122.85 38.54C120.7 40.95 120.41 41.53 118.6 45.34C117.38 47.91 118.32 50.12 117.21 52.45C116.14 54.67 116.21 57.24 115.42 59.98C114.88 61.82 112.33 64.67 111.88 66.36C110.56 71.3 112.63 72.13 112.38 74.76C128 90 156 81 164.4 49.35Z" fill="#000000"/></g><g id="ear-r" style="transform-box: view-box; transform-origin: 0px 0px"><path d="M315.93 65.59C315.33 61.97 318.87 59.4 318.25 54.15C317.36 46.62 316.46 45.84 315 41.79C313.71 38.16 314.29 36.21 312.84 33.09C311.23 29.63 305.11 21.62 302.58 20.35C300.38 19.24 298.83 16.89 297.19 16.41C292.27 14.94 291.52 17.94 289.43 17.57C284.47 16.68 283.73 17.65 278.42 21.27C276.19 22.8 274.53 25.82 272.39 27.76C270.99 29.04 267.46 30.79 266.13 32.17C263.4 35.01 263.49 37.44 261.27 40.28C258.62 43.67 257.86 45.46 256.31 47.98C273 70 294 84 315.93 65.59Z" fill="#000000"/></g><g id="face" style="transform-box: view-box; transform-origin: 0px 0px"><path d="M245.86 146.95C232.68 138.17 228.23 118.41 213.96 118.41C202.21 118.41 197.17 136.13 181.22 146.95C166.04 157.26 130.85 150.31 126.65 166.26C122.36 182.58 143.81 187.25 163.12 196.48C182.43 205.72 190.45 249.37 210.6 249.37C230.91 249.37 235.8 217.42 248.38 206.56C266.85 190.61 296.6 188.93 296.6 169.62C296.6 154.51 266.01 160.38 245.86 146.95Z" fill="#ffffff"/></g><g id="eye-l-white" style="transform-box: view-box; transform-origin: 0px 0px; animation: eye-l-white-t 0.4s linear 1 forwards"><path d="M182.74 118.56C182.74 107.51 173.79 98.56 162.74 98.56C151.69 98.56 142.74 107.51 142.74 118.56C142.74 130.16 151.69 139.56 162.74 139.56C173.79 139.56 182.74 130.16 182.74 118.56Z" fill="#ffffff" style="animation: eye-l-white-s-normal 0.4s linear 1 forwards"/><path d="M150.46 139.75C157.54 141.64 172.71 139.5 176.22 127.35C177.45 123.09 178.61 122.99 177.81 122.02C175.36 121.06 171.81 119.76 170.81 120.37C170.05 121 170.81 123.15 169.6 125C165.13 131.82 161.83 132.01 156.1 130.91C148.91 128.31 147.72 123.41 148.61 117.91C148.91 116.08 151.12 115.59 150.76 114.8C150.12 113.39 146.13 109.83 143.4 110.34C142.46 110.52 141.36 112.55 141.03 113.47C137.58 123.2 140.45 136.27 150.46 139.75Z" fill="#ffffff" style="animation: eye-l-white-s-angry 0.4s linear 1 forwards"/></g><g id="eye-r-white" style="transform-box: view-box; transform-origin: 0px 0px; animation: eye-r-white-t 0.4s linear 1 forwards"><path d="M276.16 112.48C276.16 101.99 267.65 93.48 257.16 93.48C246.67 93.48 238.16 101.99 238.16 112.48C238.16 123.53 246.67 132.48 257.16 132.48C267.65 132.48 276.16 123.53 276.16 112.48Z" fill="#ffffff" style="animation: eye-r-white-s-normal 0.4s linear 1 forwards"/><path d="M269.71 135.5C276.48 132.69 287.86 124.76 284.88 111.63C283.9 107.3 283.83 105.57 282.6 105.29C280.08 106.02 274.49 109.38 274.07 110.47C273.25 113.04 275.37 114.16 275.37 115.34C275.36 123.01 271.93 126.67 267.8 128.4C261.27 130.56 256.14 130.31 254.71 123.52C254.5 122.56 255.55 119.45 254.48 118.54C253.64 117.83 246.17 119.56 245.07 119.85C243.86 119.71 244.7 122.24 244.7 122.24C245.9 135.23 258.25 139.28 269.71 135.5Z" fill="#ffffff" style="animation: eye-r-white-s-angry 0.4s linear 1 forwards"/></g><g id="tear-l" style="transform-box: view-box; transform-origin: 0px 0px"></g><g id="tear-r" style="transform-box: view-box; transform-origin: 0px 0px"></g><g id="eye-l-pupil" style="transform-box: view-box; transform-origin: 0px 0px; animation: eye-l-pupil-t 0.4s linear 1 forwards"><g style="animation: eye-l-pupil-o 0.4s linear 1 forwards"><path d="M174.94 119.06C174.94 111.77 169.48 105.86 162.74 105.86C156 105.86 150.54 111.77 150.54 119.06C150.54 126.35 156 132.26 162.74 132.26C169.48 132.26 174.94 126.35 174.94 119.06Z" fill="#000000" style="animation: eye-l-pupil-s 0.4s linear 1 forwards"/></g></g><g id="eye-r-pupil" style="transform-box: view-box; transform-origin: 0px 0px; animation: eye-r-pupil-t 0.4s linear 1 forwards"><g style="animation: eye-r-pupil-o 0.4s linear 1 forwards"><path d="M269.36 112.98C269.36 105.69 263.9 99.78 257.16 99.78C250.42 99.78 244.96 105.69 244.96 112.98C244.96 120.27 250.42 126.18 257.16 126.18C263.9 126.18 269.36 120.27 269.36 112.98Z" fill="#000000" style="animation: eye-r-pupil-s 0.4s linear 1 forwards"/></g></g><g id="nose" style="transform-box: view-box; transform-origin: 0px 0px"><path d="M210.76 154.61C218.43 154.61 222.88 147.76 222.37 144.74C221.87 141.72 216.2 140.46 211.35 140.46C204.68 140.46 200.54 141.72 200.54 145.95C200.54 150.18 205.74 154.63 210.76 154.61Z" fill="#000000" style="animation: nose-s 0.4s linear 1 forwards"/></g><g id="mouth" style="transform-box: view-box; transform-origin: 0px 0px"><path d="M224.29 165.32C223.68 164 216.5 163.61 209.38 163.9C202.27 164.18 195.24 165.15 194.92 166.55C194.28 169.34 204.85 177.2 208.4 177.06C211.95 176.91 225.5 167.96 224.29 165.32Z" fill="#000000" style="animation: mouth-s-normal 0.4s linear 1 forwards"/><path d="M224.78 157.69C215.69 156.86 214.05 161.59 206.7 162.94C200.56 164.06 197.12 169.97 197.12 169.97C196.2 173.68 196.82 173.64 200.53 173.64C204.24 173.64 206.23 169.8 210.36 168.87C214.5 167.94 220.92 163.29 225.29 166.26C226.61 167.17 228.13 169.63 229.46 170.55C230.56 171.32 231.92 170.04 232.76 169.3C234.61 167.68 230.73 158.23 224.78 157.69Z" fill="#000000" style="animation: mouth-s-angry 0.4s linear 1 forwards"/></g></g></g><g id="ring-front" style="transform-box: view-box; transform-origin: 0px 0px"><path d="M38.03 292.31C35.62 319.4 89.69 345.91 213.53 329.95C344.58 313.05 398.57 265.21 387.81 237.89L343.08 235.82C348.22 246.49 328.66 259.44 299.41 270.66C246 292 176 302 123.92 297.84C98.44 296.06 80.4 290.67 79.49 280.92Z" fill="#000000"/></g><g id="ring-gap-l" style="transform-box: view-box; transform-origin: 0px 0px"></g><g id="ring-gap-r" style="transform-box: view-box; transform-origin: 0px 0px"></g></g>
</svg>